HIERARCHY
ROOT pelvis
{
	OFFSET 0.000000 0.730297 -0.000000
	CHANNELS 6 Xposition Yposition Zposition Xrotation Yrotation Zrotation
	JOINT spine
	{
		OFFSET 0.000000 0.000000 0.000000
		CHANNELS 6 Xposition Yposition Zposition Xrotation Yrotation Zrotation
		JOINT spine.001
		{
			OFFSET 0.000000 0.266578 0.013971
			CHANNELS 3 Xrotation Yrotation Zrotation
			JOINT neck
			{
				OFFSET 0.000000 0.264954 -0.032532
				CHANNELS 6 Xposition Yposition Zposition Xrotation Yrotation Zrotation
				JOINT face
				{
					OFFSET 0.000000 0.213700 -0.003730
					CHANNELS 6 Xposition Yposition Zposition Xrotation Yrotation Zrotation
					End Site
					{
						OFFSET 0.000000 -0.007763 0.028163
					}
				}
			}
			JOINT shoulder.L
			{
				OFFSET 0.000000 0.264954 -0.032532
				CHANNELS 6 Xposition Yposition Zposition Yrotation Xrotation Zrotation
				JOINT upper_arm.L
				{
					OFFSET 0.164955 0.000000 0.000000
					CHANNELS 6 Xposition Yposition Zposition Xrotation Yrotation Zrotation
					JOINT forearm.L
					{
						OFFSET 0.279839 0.000957 -0.000115
						CHANNELS 6 Xposition Yposition Zposition Xrotation Yrotation Zrotation
						End Site
						{
							OFFSET 0.243877 -0.001319 0.004151
						}
					}
				}
			}
			JOINT shoulder.R
			{
				OFFSET 0.000000 0.264954 -0.032532
				CHANNELS 6 Xposition Yposition Zposition Yrotation Xrotation Zrotation
				JOINT upper_arm.R
				{
					OFFSET -0.164955 0.000000 0.000000
					CHANNELS 6 Xposition Yposition Zposition Xrotation Yrotation Zrotation
					JOINT forearm.R
					{
						OFFSET -0.274111 0.000957 -0.000115
						CHANNELS 6 Xposition Yposition Zposition Xrotation Yrotation Zrotation
						End Site
						{
							OFFSET -0.238797 -0.001318 0.004062
						}
					}
				}
			}
		}
	}
	JOINT pelvis.L
	{
		OFFSET 0.000000 0.000000 0.000000
		CHANNELS 6 Xposition Yposition Zposition Yrotation Xrotation Zrotation
		End Site
		{
			OFFSET 0.110591 0.000000 0.000000
		}
	}
	JOINT pelvis.R
	{
		OFFSET 0.000000 0.000000 0.000000
		CHANNELS 6 Xposition Yposition Zposition Yrotation Xrotation Zrotation
		End Site
		{
			OFFSET -0.110591 0.000000 0.000000
		}
	}
	JOINT thigh.L
	{
		OFFSET 0.110591 0.000000 0.000000
		CHANNELS 6 Xposition Yposition Zposition Xrotation Yrotation Zrotation
		JOINT shin.L
		{
			OFFSET 0.018738 -0.357535 0.000000
			CHANNELS 6 Xposition Yposition Zposition Xrotation Yrotation Zrotation
			JOINT foot.L
			{
				OFFSET 0.015788 -0.301246 0.000000
				CHANNELS 6 Xposition Yposition Zposition Xrotation Yrotation Zrotation
				End Site
				{
					OFFSET 0.016159 -0.069186 0.164762
				}
			}
		}
	}
	JOINT thigh.R
	{
		OFFSET -0.110591 0.000000 0.000000
		CHANNELS 6 Xposition Yposition Zposition Xrotation Yrotation Zrotation
		JOINT shin.R
		{
			OFFSET -0.018180 -0.346900 0.000000
			CHANNELS 6 Xposition Yposition Zposition Xrotation Yrotation Zrotation
			JOINT foot.R
			{
				OFFSET -0.016204 -0.309190 0.000000
				CHANNELS 6 Xposition Yposition Zposition Xrotation Yrotation Zrotation
				End Site
				{
					OFFSET -0.017013 -0.072841 0.173465
				}
			}
		}
	}
}
MOTION
Frames: 9
Frame Time: 0.041667
-0.002978 -0.004508 -0.033763 -0.000000 -0.691291 -0.000000 0.000000 -0.000000 -0.000000 -8.587354 0.061152 -0.477777 10.010170 3.096413 -0.380575 -0.000000 0.264955 -0.032532 8.257832 5.726896 0.601464 -0.000000 0.213700 -0.003730 5.158025 -0.000005 0.000000 -0.000000 0.264955 -0.032532 -0.096722 -0.000661 -0.787998 0.164955 0.000000 0.000000 -5.618419 -7.029092 -77.266816 0.279839 0.000957 -0.000115 -1.563633 -18.756452 -9.806586 0.000000 0.264955 -0.032532 -0.103117 -0.000755 -0.839588 -0.164955 -0.000000 0.000000 -5.412893 6.553657 79.079766 -0.274111 0.000957 -0.000115 -2.194452 21.649794 11.814458 -0.000000 -0.000000 -0.000000 0.000021 -0.000000 0.711593 0.000000 0.000000 -0.000000 0.000000 -0.000000 0.711624 0.110583 0.001373 -0.000000 2.929335 0.104589 -1.911176 0.018738 -0.357535 0.000000 -1.994313 -0.097800 -0.385657 0.015788 -0.301246 0.000000 -7.961223 16.294798 8.930355 -0.110583 -0.001374 -0.000000 -0.538600 0.022950 1.119969 -0.018180 -0.346900 0.000000 7.910825 -0.191091 3.236910 -0.016204 -0.309190 0.000000 -12.099252 -10.839695 -7.151457 
-0.001901 -0.005192 -0.033802 -0.000000 0.296877 -0.000000 0.000000 -0.000000 -0.000000 -8.627376 0.064088 -0.499340 10.004755 2.103749 -0.258423 -0.000000 0.264954 -0.032532 8.253514 5.166458 0.663337 0.000000 0.213700 -0.003730 5.166770 -0.000001 0.000000 0.000000 0.264954 -0.032532 -0.110325 -0.000868 -0.898831 0.164955 0.000000 0.000000 -5.698671 -7.094296 -77.546321 0.279839 0.000957 -0.000115 -1.455353 -18.471536 -9.252887 0.000000 0.264954 -0.032532 -0.116653 -0.000971 -0.950382 -0.164955 0.000000 0.000000 -5.496558 6.665575 78.996950 -0.274111 0.000957 -0.000115 -2.193804 21.355795 12.002631 -0.000000 -0.000000 -0.000000 0.000031 -0.000000 0.798776 0.000000 0.000000 -0.000000 0.000000 -0.000000 0.798807 0.110581 0.001542 0.000000 2.624498 0.094770 -1.864662 0.018738 -0.357535 0.000000 -1.375614 -0.066705 -0.447792 0.015788 -0.301246 0.000000 -6.787092 14.844136 7.903446 -0.110581 -0.001542 0.000000 -0.514153 0.022894 0.901533 -0.018180 -0.346900 0.000000 7.777618 -0.173070 3.454391 -0.016204 -0.309190 0.000000 -11.289782 -11.539673 -7.339644 
-0.001066 -0.005754 -0.034045 -0.000000 1.100229 -0.000000 0.000000 -0.000000 0.000000 -8.642312 0.066980 -0.521342 10.001927 1.314506 -0.161428 0.000000 0.264954 -0.032532 8.251095 4.720289 0.718607 0.000000 0.213700 -0.003730 5.143529 -0.000001 0.000000 0.000000 0.264954 -0.032532 -0.121165 -0.001045 -0.986693 0.164955 0.000000 -0.000000 -5.774622 -7.161188 -77.764805 0.279839 0.000957 -0.000115 -1.375244 -18.273992 -8.822414 -0.000000 0.264954 -0.032532 -0.127443 -0.001156 -1.038286 -0.164955 -0.000000 0.000000 -5.543169 6.729554 78.938088 -0.274111 0.000957 -0.000115 -2.198711 21.154223 12.165988 0.000000 0.000000 0.000000 -0.000010 0.000000 0.850012 0.000000 0.000000 0.000000 0.000000 -0.000000 0.850043 0.110579 0.001641 0.000000 2.363685 0.085230 -1.870319 0.018738 -0.357535 0.000000 -0.893614 -0.043408 -0.438170 0.015788 -0.301246 0.000000 -6.083141 13.684991 7.168161 -0.110579 -0.001641 -0.000000 -0.466866 0.021330 0.768911 -0.018180 -0.346900 0.000000 7.639688 -0.163150 3.556828 -0.016204 -0.309190 0.000000 -10.690146 -12.099420 -7.493599 
-0.000573 -0.006181 -0.034492 -0.000000 1.651673 -0.000000 0.000000 -0.000000 -0.000000 -8.630034 0.070294 -0.547584 10.000637 0.782810 -0.096123 -0.000000 0.264954 -0.032532 8.245992 4.417099 0.777040 -0.000000 0.213700 -0.003730 5.079052 -0.000001 0.000000 0.000000 0.264954 -0.032532 -0.127802 -0.001161 -1.041367 0.164955 -0.000000 -0.000000 -5.830799 -7.211957 -77.913471 0.279839 0.000957 -0.000115 -1.328696 -18.188237 -8.550540 0.000000 0.264954 -0.032532 -0.134168 -0.001279 -1.092999 -0.164955 -0.000000 -0.000000 -5.568532 6.762896 78.919086 -0.274111 0.000957 -0.000115 -2.204117 21.037165 12.277334 0.000000 0.000000 -0.000000 -0.000060 0.000001 0.852205 0.000000 0.000000 -0.000000 0.000000 -0.000000 0.852205 0.110579 0.001645 0.000000 2.160124 0.077142 -1.909817 0.018738 -0.357535 0.000000 -0.566800 -0.027789 -0.386773 0.015788 -0.301246 0.000000 -5.881714 12.925558 6.757948 -0.110579 -0.001645 -0.000000 -0.416239 0.019118 0.740958 -0.018180 -0.346900 0.000000 7.528856 -0.162570 3.529593 -0.016204 -0.309190 0.000000 -10.332844 -12.486018 -7.609916 
-0.000374 -0.006568 -0.035009 -0.000000 2.020978 -0.000000 -0.000000 -0.000000 -0.000000 -8.605565 0.075120 -0.586193 10.000277 0.416039 -0.051076 -0.000000 0.264955 -0.032532 8.235885 4.215372 0.854816 -0.000000 0.213700 -0.003730 4.977674 -0.000001 -0.000000 0.000000 0.264955 -0.032533 -0.130741 -0.001217 -1.065824 0.164955 0.000000 -0.000000 -5.861104 -7.235180 -78.025561 0.279839 0.000957 -0.000115 -1.304296 -18.171228 -8.391052 0.000000 0.264955 -0.032533 -0.137115 -0.001338 -1.117456 -0.164955 0.000000 0.000000 -5.614162 6.816071 78.939679 -0.274111 0.000957 -0.000115 -2.198667 20.936239 12.315018 -0.000000 -0.000000 -0.000000 0.000128 -0.000001 0.815700 0.000000 0.000000 -0.000000 -0.000000 -0.000000 0.815701 0.110580 0.001574 -0.000000 1.989673 0.070592 -1.936272 0.018738 -0.357535 0.000000 -0.321059 -0.015840 -0.351149 0.015788 -0.301246 0.000000 -5.878575 12.440426 6.526877 -0.110580 -0.001574 -0.000000 -0.390559 0.017845 0.767843 -0.018180 -0.346900 0.000000 7.475883 -0.166285 3.455126 -0.016204 -0.309190 0.000000 -10.114081 -12.760861 -7.699593 
-0.000359 -0.007012 -0.035513 -0.000000 2.319448 -0.000000 -0.000000 -0.000000 -0.000000 -8.579698 0.081757 -0.639106 9.999943 0.107651 -0.013228 -0.000000 0.264954 -0.032532 8.228065 4.066660 0.953277 0.000000 0.213700 -0.003730 4.850594 0.000000 -0.000000 -0.000000 0.264954 -0.032532 -0.131162 -0.001227 -1.068345 0.164955 -0.000000 -0.000000 -5.882375 -7.248200 -78.128239 0.279839 0.000957 -0.000115 -1.287679 -18.162509 -8.280699 -0.000000 0.264955 -0.032532 -0.137561 -0.001345 -1.119977 -0.164955 -0.000000 0.000000 -5.683314 6.894733 78.986753 -0.274111 0.000957 -0.000115 -2.178435 20.820481 12.276223 -0.000000 -0.000000 -0.000000 0.000029 -0.000000 0.757053 0.000000 0.000000 -0.000000 0.000000 -0.000000 0.757053 0.110582 0.001461 -0.000000 1.826949 0.064847 -1.934399 0.018738 -0.357535 0.000000 -0.106562 -0.005260 -0.342316 0.015788 -0.301246 0.000000 -5.836989 12.061790 6.337526 -0.110582 -0.001461 0.000000 -0.391406 0.017783 0.797593 -0.018180 -0.346900 0.000000 7.474034 -0.168930 3.414036 -0.016204 -0.309190 0.000000 -9.962578 -12.992300 -7.782270 
-0.000431 -0.007492 -0.035992 -0.000000 2.605762 -0.000000 -0.000000 -0.000000 0.000000 -8.554345 0.089201 -0.698533 9.999918 -0.175718 0.021559 -0.000000 0.264954 -0.032532 8.229204 3.945235 1.055279 -0.000000 0.213700 -0.003730 4.715235 -0.000002 0.000000 0.000000 0.264955 -0.032532 -0.129698 -0.001197 -1.056603 0.164955 0.000000 0.000000 -5.915080 -7.275443 -78.229968 0.279839 0.000957 -0.000115 -1.269910 -18.128732 -8.175881 -0.000000 0.264954 -0.032532 -0.136106 -0.001317 -1.108193 -0.164955 0.000000 0.000000 -5.740520 6.957053 79.047234 -0.274111 0.000957 -0.000115 -2.149602 20.708889 12.182818 0.000000 0.000000 0.000000 -0.000014 0.000000 0.688030 0.000000 0.000000 0.000000 0.000000 -0.000000 0.688030 0.110583 0.001328 0.000000 1.670891 0.059471 -1.923094 0.018738 -0.357535 0.000000 0.068143 0.003372 -0.334427 0.015788 -0.301246 0.000000 -5.741923 11.717649 6.152778 -0.110583 -0.001328 0.000000 -0.400645 0.018156 0.811426 -0.018180 -0.346900 0.000000 7.493295 -0.168512 3.427110 -0.016204 -0.309190 0.000000 -9.885868 -13.201549 -7.871440 
-0.000526 -0.007898 -0.036447 -0.000000 2.873142 -0.000000 -0.000000 -0.000000 -0.000000 -8.528684 0.096255 -0.755095 10.000165 -0.415178 0.050987 -0.000000 0.264954 -0.032532 8.227988 3.840838 1.142716 -0.000000 0.213700 -0.003730 4.585793 0.000000 -0.000000 -0.000000 0.264955 -0.032532 -0.127505 -0.001154 -1.037454 0.164955 -0.000000 -0.000000 -5.959160 -7.316062 -78.335870 0.279839 0.000957 -0.000115 -1.247995 -18.067073 -8.056947 -0.000000 0.264955 -0.032532 -0.133768 -0.001273 -1.089048 -0.164955 -0.000000 0.000000 -5.762511 6.975541 79.114061 -0.274111 0.000957 -0.000115 -2.119936 20.618114 12.068867 -0.000000 -0.000000 -0.000000 0.000058 -0.000001 0.616815 0.000000 0.000000 -0.000000 0.000000 -0.000000 0.616877 0.110585 0.001191 -0.000000 1.533070 0.054632 -1.918190 0.018738 -0.357535 0.000000 0.192102 0.009538 -0.315101 0.015788 -0.301246 0.000000 -5.662917 11.415329 5.992030 -0.110585 -0.001191 -0.000000 -0.409299 0.018543 0.812216 -0.018180 -0.346900 0.000000 7.513601 -0.166032 3.471876 -0.016204 -0.309190 0.000000 -9.885869 -13.376879 -7.962066 
-0.000613 -0.008173 -0.036884 -0.000000 3.098042 -0.000000 -0.000000 -0.000000 -0.000000 -8.502140 0.102511 -0.805673 10.000461 -0.595414 0.073125 0.000000 0.264954 -0.032532 8.201712 3.757060 1.213302 0.000000 0.213700 -0.003730 4.467319 0.000001 -0.000000 -0.000000 0.264954 -0.032532 -0.124900 -0.001106 -1.017403 0.164955 0.000000 0.000000 -6.003171 -7.355164 -78.451758 0.279839 0.000957 -0.000115 -1.223128 -17.977321 -7.931590 0.000000 0.264954 -0.032532 -0.131233 -0.001228 -1.069037 -0.164955 -0.000000 0.000000 -5.761119 6.965447 79.180990 -0.274111 0.000957 -0.000115 -2.093091 20.547304 11.956917 -0.000000 -0.000000 0.000000 0.000015 -0.000000 0.549431 0.000000 0.000000 0.000000 0.000000 -0.000000 0.549462 0.110586 0.001061 0.000000 1.414391 0.050393 -1.918784 0.018738 -0.357535 0.000000 0.287969 0.014354 -0.294768 0.015788 -0.301246 0.000000 -5.622886 11.170610 5.867525 -0.110586 -0.001060 0.000000 -0.423860 0.019222 0.807500 -0.018180 -0.346900 0.000000 7.533180 -0.163301 3.519890 -0.016204 -0.309190 0.000000 -9.914687 -13.513538 -8.039974 
